ply
format ascii 1.0
element vertex 172
property float x
property float y
property float z
element face 288
property list uchar int vertex_index
property uchar red
property uchar green
property uchar blue
end_header
0.000196 0.000000 -0.000981
0.000075 -0.000491 -0.000868
-0.000065 -0.000850 -0.000523
-0.000189 -0.000981 -0.000038
-0.000261 -0.000850 0.000458
-0.000264 -0.000491 0.000830
-0.000196 -0.000000 0.000981
-0.000075 0.000491 0.000868
0.000065 0.000850 0.000523
0.000189 0.000981 0.000038
0.000261 0.000850 -0.000458
0.000264 0.000491 -0.000830
-0.499804 0.100000 -0.100981
-0.499925 0.099509 -0.100868
-0.500065 0.099150 -0.100523
-0.500189 0.099019 -0.100038
-0.500261 0.099150 -0.099542
-0.500264 0.099509 -0.099170
-0.500196 0.100000 -0.099019
-0.500075 0.100491 -0.099132
-0.499935 0.100850 -0.099477
-0.499811 0.100981 -0.099962
-0.499739 0.100850 -0.100458
-0.499736 0.100491 -0.100830
-0.500000 0.101000 -0.100000
-0.500000 0.100866 -0.099500
-0.500000 0.100500 -0.099134
-0.500000 0.100000 -0.099000
-0.500000 0.099500 -0.099134
-0.500000 0.099134 -0.099500
-0.500000 0.099000 -0.100000
-0.500000 0.099134 -0.100500
-0.500000 0.099500 -0.100866
-0.500000 0.100000 -0.101000
-0.500000 0.100500 -0.100866
-0.500000 0.100866 -0.100500
-0.300000 0.101000 -0.100000
-0.300000 0.100866 -0.099500
-0.300000 0.100500 -0.099134
-0.300000 0.100000 -0.099000
-0.300000 0.099500 -0.099134
-0.300000 0.099134 -0.099500
-0.300000 0.099000 -0.100000
-0.300000 0.099134 -0.100500
-0.300000 0.099500 -0.100866
-0.300000 0.100000 -0.101000
-0.300000 0.100500 -0.100866
-0.300000 0.100866 -0.100500
0.000000 0.000000 0.005000
0.002500 0.000000 0.004330
0.004330 0.000000 0.002500
0.005000 0.000000 0.000000
0.004330 0.000000 -0.002500
0.002500 0.000000 -0.004330
0.002165 0.001250 0.004330
0.003750 0.002165 0.002500
0.004330 0.002500 0.000000
0.003750 0.002165 -0.002500
0.002165 0.001250 -0.004330
0.001250 0.002165 0.004330
0.002165 0.003750 0.002500
0.002500 0.004330 0.000000
0.002165 0.003750 -0.002500
0.001250 0.002165 -0.004330
0.000000 0.002500 0.004330
0.000000 0.004330 0.002500
0.000000 0.005000 0.000000
0.000000 0.004330 -0.002500
0.000000 0.002500 -0.004330
-0.001250 0.002165 0.004330
-0.002165 0.003750 0.002500
-0.002500 0.004330 0.000000
-0.002165 0.003750 -0.002500
-0.001250 0.002165 -0.004330
-0.002165 0.001250 0.004330
-0.003750 0.002165 0.002500
-0.004330 0.002500 0.000000
-0.003750 0.002165 -0.002500
-0.002165 0.001250 -0.004330
-0.002500 0.000000 0.004330
-0.004330 0.000000 0.002500
-0.005000 0.000000 0.000000
-0.004330 0.000000 -0.002500
-0.002500 0.000000 -0.004330
-0.002165 -0.001250 0.004330
-0.003750 -0.002165 0.002500
-0.004330 -0.002500 0.000000
-0.003750 -0.002165 -0.002500
-0.002165 -0.001250 -0.004330
-0.001250 -0.002165 0.004330
-0.002165 -0.003750 0.002500
-0.002500 -0.004330 0.000000
-0.002165 -0.003750 -0.002500
-0.001250 -0.002165 -0.004330
-0.000000 -0.002500 0.004330
-0.000000 -0.004330 0.002500
-0.000000 -0.005000 0.000000
-0.000000 -0.004330 -0.002500
-0.000000 -0.002500 -0.004330
0.001250 -0.002165 0.004330
0.002165 -0.003750 0.002500
0.002500 -0.004330 0.000000
0.002165 -0.003750 -0.002500
0.001250 -0.002165 -0.004330
0.002165 -0.001250 0.004330
0.003750 -0.002165 0.002500
0.004330 -0.002500 0.000000
0.003750 -0.002165 -0.002500
0.002165 -0.001250 -0.004330
0.000000 0.000000 -0.005000
-0.300000 0.100000 -0.095000
-0.297500 0.100000 -0.095670
-0.295670 0.100000 -0.097500
-0.295000 0.100000 -0.100000
-0.295670 0.100000 -0.102500
-0.297500 0.100000 -0.104330
-0.297835 0.101250 -0.095670
-0.296250 0.102165 -0.097500
-0.295670 0.102500 -0.100000
-0.296250 0.102165 -0.102500
-0.297835 0.101250 -0.104330
-0.298750 0.102165 -0.095670
-0.297835 0.103750 -0.097500
-0.297500 0.104330 -0.100000
-0.297835 0.103750 -0.102500
-0.298750 0.102165 -0.104330
-0.300000 0.102500 -0.095670
-0.300000 0.104330 -0.097500
-0.300000 0.105000 -0.100000
-0.300000 0.104330 -0.102500
-0.300000 0.102500 -0.104330
-0.301250 0.102165 -0.095670
-0.302165 0.103750 -0.097500
-0.302500 0.104330 -0.100000
-0.302165 0.103750 -0.102500
-0.301250 0.102165 -0.104330
-0.302165 0.101250 -0.095670
-0.303750 0.102165 -0.097500
-0.304330 0.102500 -0.100000
-0.303750 0.102165 -0.102500
-0.302165 0.101250 -0.104330
-0.302500 0.100000 -0.095670
-0.304330 0.100000 -0.097500
-0.305000 0.100000 -0.100000
-0.304330 0.100000 -0.102500
-0.302500 0.100000 -0.104330
-0.302165 0.098750 -0.095670
-0.303750 0.097835 -0.097500
-0.304330 0.097500 -0.100000
-0.303750 0.097835 -0.102500
-0.302165 0.098750 -0.104330
-0.301250 0.097835 -0.095670
-0.302165 0.096250 -0.097500
-0.302500 0.095670 -0.100000
-0.302165 0.096250 -0.102500
-0.301250 0.097835 -0.104330
-0.300000 0.097500 -0.095670
-0.300000 0.095670 -0.097500
-0.300000 0.095000 -0.100000
-0.300000 0.095670 -0.102500
-0.300000 0.097500 -0.104330
-0.298750 0.097835 -0.095670
-0.297835 0.096250 -0.097500
-0.297500 0.095670 -0.100000
-0.297835 0.096250 -0.102500
-0.298750 0.097835 -0.104330
-0.297835 0.098750 -0.095670
-0.296250 0.097835 -0.097500
-0.295670 0.097500 -0.100000
-0.296250 0.097835 -0.102500
-0.297835 0.098750 -0.104330
-0.300000 0.100000 -0.105000
3 0 1 12 255 102 102
3 1 13 12 255 102 102
3 1 2 13 255 102 102
3 2 14 13 255 102 102
3 2 3 14 255 102 102
3 3 15 14 255 102 102
3 3 4 15 255 102 102
3 4 16 15 255 102 102
3 4 5 16 255 102 102
3 5 17 16 255 102 102
3 5 6 17 255 102 102
3 6 18 17 255 102 102
3 6 7 18 255 102 102
3 7 19 18 255 102 102
3 7 8 19 255 102 102
3 8 20 19 255 102 102
3 8 9 20 255 102 102
3 9 21 20 255 102 102
3 9 10 21 255 102 102
3 10 22 21 255 102 102
3 10 11 22 255 102 102
3 11 23 22 255 102 102
3 11 0 23 255 102 102
3 0 12 23 255 102 102
3 24 25 36 255 102 102
3 25 37 36 255 102 102
3 25 26 37 255 102 102
3 26 38 37 255 102 102
3 26 27 38 255 102 102
3 27 39 38 255 102 102
3 27 28 39 255 102 102
3 28 40 39 255 102 102
3 28 29 40 255 102 102
3 29 41 40 255 102 102
3 29 30 41 255 102 102
3 30 42 41 255 102 102
3 30 31 42 255 102 102
3 31 43 42 255 102 102
3 31 32 43 255 102 102
3 32 44 43 255 102 102
3 32 33 44 255 102 102
3 33 45 44 255 102 102
3 33 34 45 255 102 102
3 34 46 45 255 102 102
3 34 35 46 255 102 102
3 35 47 46 255 102 102
3 35 24 47 255 102 102
3 24 36 47 255 102 102
3 48 49 54 255 255 102
3 48 54 59 255 255 102
3 48 59 64 255 255 102
3 48 64 69 255 255 102
3 48 69 74 255 255 102
3 48 74 79 255 255 102
3 48 79 84 255 255 102
3 48 84 89 255 255 102
3 48 89 94 255 255 102
3 48 94 99 255 255 102
3 48 99 104 255 255 102
3 48 104 49 255 255 102
3 49 50 55 255 255 102
3 49 55 54 255 255 102
3 54 55 60 255 255 102
3 54 60 59 255 255 102
3 59 60 65 255 255 102
3 59 65 64 255 255 102
3 64 65 70 255 255 102
3 64 70 69 255 255 102
3 69 70 75 255 255 102
3 69 75 74 255 255 102
3 74 75 80 255 255 102
3 74 80 79 255 255 102
3 79 80 85 255 255 102
3 79 85 84 255 255 102
3 84 85 90 255 255 102
3 84 90 89 255 255 102
3 89 90 95 255 255 102
3 89 95 94 255 255 102
3 94 95 100 255 255 102
3 94 100 99 255 255 102
3 99 100 105 255 255 102
3 99 105 104 255 255 102
3 104 105 50 255 255 102
3 104 50 49 255 255 102
3 50 51 56 255 255 102
3 50 56 55 255 255 102
3 55 56 61 255 255 102
3 55 61 60 255 255 102
3 60 61 66 255 255 102
3 60 66 65 255 255 102
3 65 66 71 255 255 102
3 65 71 70 255 255 102
3 70 71 76 255 255 102
3 70 76 75 255 255 102
3 75 76 81 255 255 102
3 75 81 80 255 255 102
3 80 81 86 255 255 102
3 80 86 85 255 255 102
3 85 86 91 255 255 102
3 85 91 90 255 255 102
3 90 91 96 255 255 102
3 90 96 95 255 255 102
3 95 96 101 255 255 102
3 95 101 100 255 255 102
3 100 101 106 255 255 102
3 100 106 105 255 255 102
3 105 106 51 255 255 102
3 105 51 50 255 255 102
3 51 52 57 255 255 102
3 51 57 56 255 255 102
3 56 57 62 255 255 102
3 56 62 61 255 255 102
3 61 62 67 255 255 102
3 61 67 66 255 255 102
3 66 67 72 255 255 102
3 66 72 71 255 255 102
3 71 72 77 255 255 102
3 71 77 76 255 255 102
3 76 77 82 255 255 102
3 76 82 81 255 255 102
3 81 82 87 255 255 102
3 81 87 86 255 255 102
3 86 87 92 255 255 102
3 86 92 91 255 255 102
3 91 92 97 255 255 102
3 91 97 96 255 255 102
3 96 97 102 255 255 102
3 96 102 101 255 255 102
3 101 102 107 255 255 102
3 101 107 106 255 255 102
3 106 107 52 255 255 102
3 106 52 51 255 255 102
3 52 53 58 255 255 102
3 52 58 57 255 255 102
3 57 58 63 255 255 102
3 57 63 62 255 255 102
3 62 63 68 255 255 102
3 62 68 67 255 255 102
3 67 68 73 255 255 102
3 67 73 72 255 255 102
3 72 73 78 255 255 102
3 72 78 77 255 255 102
3 77 78 83 255 255 102
3 77 83 82 255 255 102
3 82 83 88 255 255 102
3 82 88 87 255 255 102
3 87 88 93 255 255 102
3 87 93 92 255 255 102
3 92 93 98 255 255 102
3 92 98 97 255 255 102
3 97 98 103 255 255 102
3 97 103 102 255 255 102
3 102 103 108 255 255 102
3 102 108 107 255 255 102
3 107 108 53 255 255 102
3 107 53 52 255 255 102
3 53 109 58 255 255 102
3 58 109 63 255 255 102
3 63 109 68 255 255 102
3 68 109 73 255 255 102
3 73 109 78 255 255 102
3 78 109 83 255 255 102
3 83 109 88 255 255 102
3 88 109 93 255 255 102
3 93 109 98 255 255 102
3 98 109 103 255 255 102
3 103 109 108 255 255 102
3 108 109 53 255 255 102
3 110 111 116 255 255 102
3 110 116 121 255 255 102
3 110 121 126 255 255 102
3 110 126 131 255 255 102
3 110 131 136 255 255 102
3 110 136 141 255 255 102
3 110 141 146 255 255 102
3 110 146 151 255 255 102
3 110 151 156 255 255 102
3 110 156 161 255 255 102
3 110 161 166 255 255 102
3 110 166 111 255 255 102
3 111 112 117 255 255 102
3 111 117 116 255 255 102
3 116 117 122 255 255 102
3 116 122 121 255 255 102
3 121 122 127 255 255 102
3 121 127 126 255 255 102
3 126 127 132 255 255 102
3 126 132 131 255 255 102
3 131 132 137 255 255 102
3 131 137 136 255 255 102
3 136 137 142 255 255 102
3 136 142 141 255 255 102
3 141 142 147 255 255 102
3 141 147 146 255 255 102
3 146 147 152 255 255 102
3 146 152 151 255 255 102
3 151 152 157 255 255 102
3 151 157 156 255 255 102
3 156 157 162 255 255 102
3 156 162 161 255 255 102
3 161 162 167 255 255 102
3 161 167 166 255 255 102
3 166 167 112 255 255 102
3 166 112 111 255 255 102
3 112 113 118 255 255 102
3 112 118 117 255 255 102
3 117 118 123 255 255 102
3 117 123 122 255 255 102
3 122 123 128 255 255 102
3 122 128 127 255 255 102
3 127 128 133 255 255 102
3 127 133 132 255 255 102
3 132 133 138 255 255 102
3 132 138 137 255 255 102
3 137 138 143 255 255 102
3 137 143 142 255 255 102
3 142 143 148 255 255 102
3 142 148 147 255 255 102
3 147 148 153 255 255 102
3 147 153 152 255 255 102
3 152 153 158 255 255 102
3 152 158 157 255 255 102
3 157 158 163 255 255 102
3 157 163 162 255 255 102
3 162 163 168 255 255 102
3 162 168 167 255 255 102
3 167 168 113 255 255 102
3 167 113 112 255 255 102
3 113 114 119 255 255 102
3 113 119 118 255 255 102
3 118 119 124 255 255 102
3 118 124 123 255 255 102
3 123 124 129 255 255 102
3 123 129 128 255 255 102
3 128 129 134 255 255 102
3 128 134 133 255 255 102
3 133 134 139 255 255 102
3 133 139 138 255 255 102
3 138 139 144 255 255 102
3 138 144 143 255 255 102
3 143 144 149 255 255 102
3 143 149 148 255 255 102
3 148 149 154 255 255 102
3 148 154 153 255 255 102
3 153 154 159 255 255 102
3 153 159 158 255 255 102
3 158 159 164 255 255 102
3 158 164 163 255 255 102
3 163 164 169 255 255 102
3 163 169 168 255 255 102
3 168 169 114 255 255 102
3 168 114 113 255 255 102
3 114 115 120 255 255 102
3 114 120 119 255 255 102
3 119 120 125 255 255 102
3 119 125 124 255 255 102
3 124 125 130 255 255 102
3 124 130 129 255 255 102
3 129 130 135 255 255 102
3 129 135 134 255 255 102
3 134 135 140 255 255 102
3 134 140 139 255 255 102
3 139 140 145 255 255 102
3 139 145 144 255 255 102
3 144 145 150 255 255 102
3 144 150 149 255 255 102
3 149 150 155 255 255 102
3 149 155 154 255 255 102
3 154 155 160 255 255 102
3 154 160 159 255 255 102
3 159 160 165 255 255 102
3 159 165 164 255 255 102
3 164 165 170 255 255 102
3 164 170 169 255 255 102
3 169 170 115 255 255 102
3 169 115 114 255 255 102
3 115 171 120 255 255 102
3 120 171 125 255 255 102
3 125 171 130 255 255 102
3 130 171 135 255 255 102
3 135 171 140 255 255 102
3 140 171 145 255 255 102
3 145 171 150 255 255 102
3 150 171 155 255 255 102
3 155 171 160 255 255 102
3 160 171 165 255 255 102
3 165 171 170 255 255 102
3 170 171 115 255 255 102

