ply
format ascii 1.0
element vertex 484
property float x
property float y
property float z
element face 600
property list uchar int vertex_index
property uchar red
property uchar green
property uchar blue
end_header
-0.000465 0.000000 0.000885
-0.000259 -0.000473 0.000842
0.000017 -0.000819 0.000574
0.000288 -0.000946 0.000151
0.000482 -0.000819 -0.000311
0.000547 -0.000473 -0.000691
0.000465 -0.000000 -0.000885
0.000259 0.000473 -0.000842
-0.000017 0.000819 -0.000574
-0.000288 0.000946 -0.000151
-0.000482 0.000819 0.000311
-0.000547 0.000473 0.000691
0.262468 0.102269 0.139132
0.262674 0.101796 0.139089
0.262950 0.101450 0.138821
0.263221 0.101323 0.138398
0.263415 0.101450 0.137936
0.263480 0.101796 0.137556
0.263398 0.102269 0.137362
0.263192 0.102742 0.137405
0.262916 0.103088 0.137673
0.262645 0.103215 0.138096
0.262451 0.103088 0.138558
0.262386 0.102742 0.138938
0.263774 0.102269 0.138788
0.263574 0.101795 0.138850
0.263203 0.101449 0.138751
0.262759 0.101322 0.138517
0.262362 0.101449 0.138210
0.262118 0.101795 0.137913
0.262092 0.102269 0.137706
0.262292 0.102743 0.137644
0.262663 0.103089 0.137743
0.263107 0.103216 0.137977
0.263504 0.103089 0.138284
0.263748 0.102743 0.138581
0.278958 0.092770 0.115194
0.278758 0.092296 0.115256
0.278387 0.091950 0.115157
0.277943 0.091823 0.114923
0.277546 0.091950 0.114616
0.277302 0.092296 0.114319
0.277276 0.092770 0.114112
0.277476 0.093244 0.114050
0.277847 0.093590 0.114149
0.278291 0.093717 0.114383
0.278688 0.093590 0.114690
0.278932 0.093244 0.114987
0.278117 0.093644 0.114168
0.278599 0.093592 0.114349
0.278952 0.093319 0.114612
0.279081 0.092899 0.114886
0.278952 0.092445 0.115097
0.278599 0.092077 0.115190
0.278117 0.091896 0.115138
0.277635 0.091948 0.114957
0.277282 0.092221 0.114694
0.277153 0.092641 0.114420
0.277282 0.093095 0.114209
0.277635 0.093463 0.114116
0.286002 0.079790 0.089201
0.286484 0.079737 0.089382
0.286837 0.079464 0.089645
0.286966 0.079045 0.089919
0.286837 0.078590 0.090130
0.286484 0.078223 0.090223
0.286002 0.078041 0.090171
0.285520 0.078094 0.089990
0.285167 0.078366 0.089727
0.285038 0.078786 0.089453
0.285167 0.079241 0.089242
0.285520 0.079608 0.089150
0.286973 0.078915 0.089447
0.286855 0.078418 0.089528
0.286508 0.078054 0.089650
0.286026 0.077920 0.089783
0.285537 0.078054 0.089889
0.285173 0.078418 0.089941
0.285031 0.078915 0.089925
0.285149 0.079413 0.089845
0.285496 0.079777 0.089722
0.285978 0.079910 0.089589
0.286467 0.079777 0.089483
0.286831 0.079413 0.089431
0.281184 0.076488 0.065908
0.281066 0.075991 0.065988
0.280719 0.075627 0.066111
0.280237 0.075493 0.066243
0.279748 0.075627 0.066350
0.279384 0.075991 0.066402
0.279242 0.076488 0.066385
0.279360 0.076986 0.066305
0.279707 0.077350 0.066182
0.280189 0.077483 0.066050
0.280678 0.077350 0.065943
0.281042 0.076986 0.065891
0.281098 0.076488 0.065680
0.280980 0.075988 0.065745
0.280657 0.075622 0.065917
0.280215 0.075488 0.066151
0.279773 0.075622 0.066383
0.279448 0.075988 0.066553
0.279328 0.076488 0.066613
0.279446 0.076988 0.066548
0.279769 0.077354 0.066376
0.280211 0.077488 0.066142
0.280653 0.077354 0.065910
0.280978 0.076988 0.065740
0.270014 0.076372 0.044657
0.269896 0.075872 0.044721
0.269573 0.075506 0.044893
0.269131 0.075372 0.045127
0.268689 0.075506 0.045360
0.268364 0.075872 0.045529
0.268244 0.076372 0.045589
0.268362 0.076872 0.045525
0.268685 0.077238 0.045352
0.269127 0.077372 0.045119
0.269569 0.077238 0.044886
0.269894 0.076872 0.044717
0.270013 0.076372 0.044656
0.269961 0.075893 0.044845
0.269686 0.075542 0.045107
0.269262 0.075413 0.045374
0.268802 0.075542 0.045574
0.268429 0.075893 0.045653
0.268245 0.076372 0.045589
0.268297 0.076852 0.045401
0.268572 0.077203 0.045139
0.268996 0.077331 0.044872
0.269456 0.077203 0.044672
0.269829 0.076852 0.044593
0.255694 0.067277 0.017510
0.255642 0.066797 0.017698
0.255367 0.066446 0.017961
0.254943 0.066318 0.018228
0.254483 0.066446 0.018427
0.254110 0.066797 0.018506
0.253926 0.067277 0.018443
0.253978 0.067756 0.018255
0.254253 0.068107 0.017992
0.254677 0.068235 0.017725
0.255137 0.068107 0.017525
0.255510 0.067756 0.017447
0.255632 0.066708 0.017976
0.255474 0.066715 0.018469
0.255138 0.066872 0.018830
0.254714 0.067138 0.018962
0.254316 0.067441 0.018830
0.254050 0.067700 0.018469
0.253988 0.067846 0.017976
0.254146 0.067839 0.017483
0.254482 0.067681 0.017123
0.254906 0.067415 0.016991
0.255304 0.067112 0.017123
0.255570 0.066853 0.017483
0.246366 0.053321 0.015197
0.246208 0.053328 0.015690
0.245872 0.053485 0.016051
0.245448 0.053751 0.016183
0.245050 0.054055 0.016051
0.244784 0.054314 0.015690
0.244722 0.054459 0.015197
0.244880 0.054452 0.014705
0.245216 0.054294 0.014344
0.245640 0.054028 0.014212
0.246038 0.053725 0.014344
0.246304 0.053466 0.014705
0.246312 0.053250 0.015197
0.246044 0.053137 0.015625
0.245641 0.053225 0.015938
0.245213 0.053492 0.016053
0.244873 0.053865 0.015938
0.244713 0.054245 0.015625
0.244776 0.054530 0.015197
0.245044 0.054643 0.014770
0.245447 0.054554 0.014457
0.245875 0.054288 0.014342
0.246215 0.053915 0.014457
0.246375 0.053535 0.014770
0.232494 0.036654 0.002123
0.232226 0.036541 0.002551
0.231823 0.036629 0.002864
0.231395 0.036896 0.002978
0.231055 0.037269 0.002864
0.230895 0.037649 0.002551
0.230958 0.037934 0.002123
0.231226 0.038047 0.001695
0.231629 0.037959 0.001382
0.232057 0.037692 0.001267
0.232397 0.037319 0.001382
0.232557 0.036939 0.001695
0.232530 0.037294 0.001528
0.232543 0.036837 0.001771
0.232337 0.036502 0.002108
0.231967 0.036380 0.002449
0.231533 0.036502 0.002702
0.231150 0.036837 0.002801
0.230922 0.037294 0.002717
0.230909 0.037751 0.002475
0.231115 0.038086 0.002138
0.231485 0.038208 0.001797
0.231919 0.038086 0.001543
0.232302 0.037751 0.001445
0.224059 0.030976 -0.009928
0.224072 0.030519 -0.009686
0.223866 0.030184 -0.009349
0.223496 0.030062 -0.009008
0.223062 0.030184 -0.008754
0.222679 0.030519 -0.008656
0.222451 0.030976 -0.008739
0.222438 0.031433 -0.008982
0.222644 0.031767 -0.009319
0.223014 0.031890 -0.009660
0.223448 0.031767 -0.009913
0.223831 0.031433 -0.010012
0.224016 0.030976 -0.009983
0.223892 0.030477 -0.009922
0.223597 0.030112 -0.009703
0.223211 0.029978 -0.009385
0.222837 0.030112 -0.009054
0.222574 0.030477 -0.008797
0.222494 0.030976 -0.008685
0.222618 0.031475 -0.008746
0.222913 0.031840 -0.008965
0.223299 0.031974 -0.009282
0.223673 0.031840 -0.009614
0.223936 0.031475 -0.009870
0.213920 0.032032 -0.021810
0.213796 0.031533 -0.021749
0.213501 0.031168 -0.021530
0.213115 0.031034 -0.021212
0.212741 0.031168 -0.020881
0.212478 0.031533 -0.020624
0.212398 0.032032 -0.020512
0.212522 0.032531 -0.020573
0.212817 0.032896 -0.020792
0.213203 0.033030 -0.021109
0.213577 0.032896 -0.021441
0.213840 0.032531 -0.021697
0.213458 0.032032 -0.022115
0.213412 0.031532 -0.021989
0.213299 0.031166 -0.021641
0.213148 0.031032 -0.021164
0.213000 0.031166 -0.020687
0.212895 0.031532 -0.020336
0.212860 0.032032 -0.020207
0.212906 0.032532 -0.020333
0.213019 0.032898 -0.020681
0.213170 0.033032 -0.021158
0.213318 0.032898 -0.021635
0.213423 0.032532 -0.021986
0.193921 0.032260 -0.028229
0.193875 0.031760 -0.028103
0.193762 0.031394 -0.027755
0.193611 0.031260 -0.027278
0.193463 0.031394 -0.026801
0.193358 0.031760 -0.026450
0.193323 0.032260 -0.026320
0.193369 0.032760 -0.026447
0.193482 0.033126 -0.026795
0.193633 0.033260 -0.027271
0.193781 0.033126 -0.027749
0.193886 0.032760 -0.028100
0.193472 0.031271 -0.027275
0.193478 0.031406 -0.026775
0.193523 0.031769 -0.026409
0.193594 0.032264 -0.026275
0.193673 0.032758 -0.026409
0.193738 0.033119 -0.026775
0.193772 0.033249 -0.027275
0.193766 0.033114 -0.027775
0.193721 0.032751 -0.028140
0.193650 0.032256 -0.028274
0.193571 0.031762 -0.028140
0.193506 0.031402 -0.027775
0.173896 0.034235 -0.027833
0.173902 0.034370 -0.027333
0.173947 0.034733 -0.026968
0.174018 0.035228 -0.026834
0.174097 0.035722 -0.026968
0.174162 0.036082 -0.027333
0.174196 0.036213 -0.027833
0.174190 0.036078 -0.028333
0.174145 0.035715 -0.028699
0.174074 0.035220 -0.028833
0.173995 0.034726 -0.028699
0.173930 0.034366 -0.028333
0.173862 0.034241 -0.027833
0.173915 0.034367 -0.027334
0.174003 0.034723 -0.026969
0.174103 0.035213 -0.026835
0.174187 0.035706 -0.026969
0.174234 0.036070 -0.027334
0.174230 0.036207 -0.027833
0.174177 0.036081 -0.028332
0.174089 0.035725 -0.028698
0.173989 0.035235 -0.028832
0.173905 0.034742 -0.028698
0.173858 0.034378 -0.028332
0.154426 0.037885 -0.026687
0.154479 0.038011 -0.026187
0.154567 0.038367 -0.025822
0.154667 0.038857 -0.025688
0.154751 0.039350 -0.025822
0.154798 0.039713 -0.026187
0.154794 0.039850 -0.026687
0.154741 0.039724 -0.027186
0.154653 0.039368 -0.027551
0.154553 0.038878 -0.027685
0.154469 0.038385 -0.027551
0.154422 0.038022 -0.027186
0.154714 0.038868 -0.027681
0.154653 0.038370 -0.027553
0.154580 0.038006 -0.027192
0.154515 0.037872 -0.026697
0.154476 0.038006 -0.026198
0.154472 0.038370 -0.025830
0.154506 0.038868 -0.025692
0.154567 0.039365 -0.025820
0.154640 0.039730 -0.026181
0.154705 0.039863 -0.026677
0.154744 0.039730 -0.027175
0.154748 0.039365 -0.027543
0.122627 0.041951 -0.031044
0.122566 0.041454 -0.030916
0.122493 0.041089 -0.030556
0.122428 0.040956 -0.030060
0.122389 0.041089 -0.029561
0.122385 0.041454 -0.029194
0.122419 0.041951 -0.029055
0.122480 0.042449 -0.029184
0.122553 0.042813 -0.029544
0.122618 0.042947 -0.030040
0.122657 0.042813 -0.030539
0.122661 0.042449 -0.030906
0.122820 0.041951 -0.031005
0.122781 0.041451 -0.030877
0.122673 0.041085 -0.030527
0.122525 0.040951 -0.030049
0.122376 0.041085 -0.029572
0.122267 0.041451 -0.029223
0.122226 0.041951 -0.029095
0.122265 0.042451 -0.029223
0.122373 0.042817 -0.029573
0.122521 0.042951 -0.030051
0.122670 0.042817 -0.030528
0.122779 0.042451 -0.030877
0.084611 0.041857 -0.042885
0.084572 0.041358 -0.042757
0.084465 0.040991 -0.042407
0.084316 0.040858 -0.041930
0.084168 0.040991 -0.041452
0.084058 0.041358 -0.041103
0.084017 0.041857 -0.040975
0.084056 0.042357 -0.041104
0.084164 0.042724 -0.041453
0.084312 0.042857 -0.041931
0.084461 0.042724 -0.042408
0.084570 0.042357 -0.042758
0.000000 0.000000 0.005000
0.002500 0.000000 0.004330
0.004330 0.000000 0.002500
0.005000 0.000000 0.000000
0.004330 0.000000 -0.002500
0.002500 0.000000 -0.004330
0.002165 0.001250 0.004330
0.003750 0.002165 0.002500
0.004330 0.002500 0.000000
0.003750 0.002165 -0.002500
0.002165 0.001250 -0.004330
0.001250 0.002165 0.004330
0.002165 0.003750 0.002500
0.002500 0.004330 0.000000
0.002165 0.003750 -0.002500
0.001250 0.002165 -0.004330
0.000000 0.002500 0.004330
0.000000 0.004330 0.002500
0.000000 0.005000 0.000000
0.000000 0.004330 -0.002500
0.000000 0.002500 -0.004330
-0.001250 0.002165 0.004330
-0.002165 0.003750 0.002500
-0.002500 0.004330 0.000000
-0.002165 0.003750 -0.002500
-0.001250 0.002165 -0.004330
-0.002165 0.001250 0.004330
-0.003750 0.002165 0.002500
-0.004330 0.002500 0.000000
-0.003750 0.002165 -0.002500
-0.002165 0.001250 -0.004330
-0.002500 0.000000 0.004330
-0.004330 0.000000 0.002500
-0.005000 0.000000 0.000000
-0.004330 0.000000 -0.002500
-0.002500 0.000000 -0.004330
-0.002165 -0.001250 0.004330
-0.003750 -0.002165 0.002500
-0.004330 -0.002500 0.000000
-0.003750 -0.002165 -0.002500
-0.002165 -0.001250 -0.004330
-0.001250 -0.002165 0.004330
-0.002165 -0.003750 0.002500
-0.002500 -0.004330 0.000000
-0.002165 -0.003750 -0.002500
-0.001250 -0.002165 -0.004330
-0.000000 -0.002500 0.004330
-0.000000 -0.004330 0.002500
-0.000000 -0.005000 0.000000
-0.000000 -0.004330 -0.002500
-0.000000 -0.002500 -0.004330
0.001250 -0.002165 0.004330
0.002165 -0.003750 0.002500
0.002500 -0.004330 0.000000
0.002165 -0.003750 -0.002500
0.001250 -0.002165 -0.004330
0.002165 -0.001250 0.004330
0.003750 -0.002165 0.002500
0.004330 -0.002500 0.000000
0.003750 -0.002165 -0.002500
0.002165 -0.001250 -0.004330
0.000000 0.000000 -0.005000
0.084314 0.041857 -0.036930
0.086814 0.041857 -0.037600
0.088644 0.041857 -0.039430
0.089314 0.041857 -0.041930
0.088644 0.041857 -0.044430
0.086814 0.041857 -0.046260
0.086479 0.043107 -0.037600
0.088064 0.044023 -0.039430
0.088644 0.044358 -0.041930
0.088064 0.044023 -0.044430
0.086479 0.043107 -0.046260
0.085564 0.044023 -0.037600
0.086479 0.045607 -0.039430
0.086814 0.046188 -0.041930
0.086479 0.045607 -0.044430
0.085564 0.044023 -0.046260
0.084314 0.044358 -0.037600
0.084314 0.046188 -0.039430
0.084314 0.046857 -0.041930
0.084314 0.046188 -0.044430
0.084314 0.044358 -0.046260
0.083064 0.044023 -0.037600
0.082149 0.045608 -0.039430
0.081814 0.046188 -0.041930
0.082149 0.045608 -0.044430
0.083064 0.044023 -0.046260
0.082149 0.043107 -0.037600
0.080564 0.044023 -0.039430
0.079984 0.044358 -0.041930
0.080564 0.044023 -0.044430
0.082149 0.043107 -0.046260
0.081814 0.041857 -0.037600
0.079984 0.041857 -0.039430
0.079314 0.041857 -0.041930
0.079984 0.041857 -0.044430
0.081814 0.041857 -0.046260
0.082149 0.040607 -0.037600
0.080564 0.039692 -0.039430
0.079984 0.039357 -0.041930
0.080564 0.039692 -0.044430
0.082149 0.040607 -0.046260
0.083064 0.039692 -0.037600
0.082149 0.038108 -0.039430
0.081814 0.037527 -0.041930
0.082149 0.038108 -0.044430
0.083064 0.039692 -0.046260
0.084314 0.039357 -0.037600
0.084314 0.037527 -0.039430
0.084314 0.036858 -0.041930
0.084314 0.037527 -0.044430
0.084314 0.039357 -0.046260
0.085564 0.039692 -0.037600
0.086479 0.038108 -0.039430
0.086814 0.037527 -0.041930
0.086479 0.038108 -0.044430
0.085564 0.039692 -0.046260
0.086479 0.040607 -0.037600
0.088064 0.039692 -0.039430
0.088644 0.039357 -0.041930
0.088064 0.039692 -0.044430
0.086479 0.040607 -0.046260
0.084314 0.041857 -0.046930
3 0 1 12 255 102 102
3 1 13 12 255 102 102
3 1 2 13 255 102 102
3 2 14 13 255 102 102
3 2 3 14 255 102 102
3 3 15 14 255 102 102
3 3 4 15 255 102 102
3 4 16 15 255 102 102
3 4 5 16 255 102 102
3 5 17 16 255 102 102
3 5 6 17 255 102 102
3 6 18 17 255 102 102
3 6 7 18 255 102 102
3 7 19 18 255 102 102
3 7 8 19 255 102 102
3 8 20 19 255 102 102
3 8 9 20 255 102 102
3 9 21 20 255 102 102
3 9 10 21 255 102 102
3 10 22 21 255 102 102
3 10 11 22 255 102 102
3 11 23 22 255 102 102
3 11 0 23 255 102 102
3 0 12 23 255 102 102
3 24 25 36 255 102 102
3 25 37 36 255 102 102
3 25 26 37 255 102 102
3 26 38 37 255 102 102
3 26 27 38 255 102 102
3 27 39 38 255 102 102
3 27 28 39 255 102 102
3 28 40 39 255 102 102
3 28 29 40 255 102 102
3 29 41 40 255 102 102
3 29 30 41 255 102 102
3 30 42 41 255 102 102
3 30 31 42 255 102 102
3 31 43 42 255 102 102
3 31 32 43 255 102 102
3 32 44 43 255 102 102
3 32 33 44 255 102 102
3 33 45 44 255 102 102
3 33 34 45 255 102 102
3 34 46 45 255 102 102
3 34 35 46 255 102 102
3 35 47 46 255 102 102
3 35 24 47 255 102 102
3 24 36 47 255 102 102
3 48 49 60 255 102 102
3 49 61 60 255 102 102
3 49 50 61 255 102 102
3 50 62 61 255 102 102
3 50 51 62 255 102 102
3 51 63 62 255 102 102
3 51 52 63 255 102 102
3 52 64 63 255 102 102
3 52 53 64 255 102 102
3 53 65 64 255 102 102
3 53 54 65 255 102 102
3 54 66 65 255 102 102
3 54 55 66 255 102 102
3 55 67 66 255 102 102
3 55 56 67 255 102 102
3 56 68 67 255 102 102
3 56 57 68 255 102 102
3 57 69 68 255 102 102
3 57 58 69 255 102 102
3 58 70 69 255 102 102
3 58 59 70 255 102 102
3 59 71 70 255 102 102
3 59 48 71 255 102 102
3 48 60 71 255 102 102
3 72 73 84 255 102 102
3 73 85 84 255 102 102
3 73 74 85 255 102 102
3 74 86 85 255 102 102
3 74 75 86 255 102 102
3 75 87 86 255 102 102
3 75 76 87 255 102 102
3 76 88 87 255 102 102
3 76 77 88 255 102 102
3 77 89 88 255 102 102
3 77 78 89 255 102 102
3 78 90 89 255 102 102
3 78 79 90 255 102 102
3 79 91 90 255 102 102
3 79 80 91 255 102 102
3 80 92 91 255 102 102
3 80 81 92 255 102 102
3 81 93 92 255 102 102
3 81 82 93 255 102 102
3 82 94 93 255 102 102
3 82 83 94 255 102 102
3 83 95 94 255 102 102
3 83 72 95 255 102 102
3 72 84 95 255 102 102
3 96 97 108 255 102 102
3 97 109 108 255 102 102
3 97 98 109 255 102 102
3 98 110 109 255 102 102
3 98 99 110 255 102 102
3 99 111 110 255 102 102
3 99 100 111 255 102 102
3 100 112 111 255 102 102
3 100 101 112 255 102 102
3 101 113 112 255 102 102
3 101 102 113 255 102 102
3 102 114 113 255 102 102
3 102 103 114 255 102 102
3 103 115 114 255 102 102
3 103 104 115 255 102 102
3 104 116 115 255 102 102
3 104 105 116 255 102 102
3 105 117 116 255 102 102
3 105 106 117 255 102 102
3 106 118 117 255 102 102
3 106 107 118 255 102 102
3 107 119 118 255 102 102
3 107 96 119 255 102 102
3 96 108 119 255 102 102
3 120 121 132 255 102 102
3 121 133 132 255 102 102
3 121 122 133 255 102 102
3 122 134 133 255 102 102
3 122 123 134 255 102 102
3 123 135 134 255 102 102
3 123 124 135 255 102 102
3 124 136 135 255 102 102
3 124 125 136 255 102 102
3 125 137 136 255 102 102
3 125 126 137 255 102 102
3 126 138 137 255 102 102
3 126 127 138 255 102 102
3 127 139 138 255 102 102
3 127 128 139 255 102 102
3 128 140 139 255 102 102
3 128 129 140 255 102 102
3 129 141 140 255 102 102
3 129 130 141 255 102 102
3 130 142 141 255 102 102
3 130 131 142 255 102 102
3 131 143 142 255 102 102
3 131 120 143 255 102 102
3 120 132 143 255 102 102
3 144 145 156 255 102 102
3 145 157 156 255 102 102
3 145 146 157 255 102 102
3 146 158 157 255 102 102
3 146 147 158 255 102 102
3 147 159 158 255 102 102
3 147 148 159 255 102 102
3 148 160 159 255 102 102
3 148 149 160 255 102 102
3 149 161 160 255 102 102
3 149 150 161 255 102 102
3 150 162 161 255 102 102
3 150 151 162 255 102 102
3 151 163 162 255 102 102
3 151 152 163 255 102 102
3 152 164 163 255 102 102
3 152 153 164 255 102 102
3 153 165 164 255 102 102
3 153 154 165 255 102 102
3 154 166 165 255 102 102
3 154 155 166 255 102 102
3 155 167 166 255 102 102
3 155 144 167 255 102 102
3 144 156 167 255 102 102
3 168 169 180 255 102 102
3 169 181 180 255 102 102
3 169 170 181 255 102 102
3 170 182 181 255 102 102
3 170 171 182 255 102 102
3 171 183 182 255 102 102
3 171 172 183 255 102 102
3 172 184 183 255 102 102
3 172 173 184 255 102 102
3 173 185 184 255 102 102
3 173 174 185 255 102 102
3 174 186 185 255 102 102
3 174 175 186 255 102 102
3 175 187 186 255 102 102
3 175 176 187 255 102 102
3 176 188 187 255 102 102
3 176 177 188 255 102 102
3 177 189 188 255 102 102
3 177 178 189 255 102 102
3 178 190 189 255 102 102
3 178 179 190 255 102 102
3 179 191 190 255 102 102
3 179 168 191 255 102 102
3 168 180 191 255 102 102
3 192 193 204 255 102 102
3 193 205 204 255 102 102
3 193 194 205 255 102 102
3 194 206 205 255 102 102
3 194 195 206 255 102 102
3 195 207 206 255 102 102
3 195 196 207 255 102 102
3 196 208 207 255 102 102
3 196 197 208 255 102 102
3 197 209 208 255 102 102
3 197 198 209 255 102 102
3 198 210 209 255 102 102
3 198 199 210 255 102 102
3 199 211 210 255 102 102
3 199 200 211 255 102 102
3 200 212 211 255 102 102
3 200 201 212 255 102 102
3 201 213 212 255 102 102
3 201 202 213 255 102 102
3 202 214 213 255 102 102
3 202 203 214 255 102 102
3 203 215 214 255 102 102
3 203 192 215 255 102 102
3 192 204 215 255 102 102
3 216 217 228 255 102 102
3 217 229 228 255 102 102
3 217 218 229 255 102 102
3 218 230 229 255 102 102
3 218 219 230 255 102 102
3 219 231 230 255 102 102
3 219 220 231 255 102 102
3 220 232 231 255 102 102
3 220 221 232 255 102 102
3 221 233 232 255 102 102
3 221 222 233 255 102 102
3 222 234 233 255 102 102
3 222 223 234 255 102 102
3 223 235 234 255 102 102
3 223 224 235 255 102 102
3 224 236 235 255 102 102
3 224 225 236 255 102 102
3 225 237 236 255 102 102
3 225 226 237 255 102 102
3 226 238 237 255 102 102
3 226 227 238 255 102 102
3 227 239 238 255 102 102
3 227 216 239 255 102 102
3 216 228 239 255 102 102
3 240 241 252 255 102 102
3 241 253 252 255 102 102
3 241 242 253 255 102 102
3 242 254 253 255 102 102
3 242 243 254 255 102 102
3 243 255 254 255 102 102
3 243 244 255 255 102 102
3 244 256 255 255 102 102
3 244 245 256 255 102 102
3 245 257 256 255 102 102
3 245 246 257 255 102 102
3 246 258 257 255 102 102
3 246 247 258 255 102 102
3 247 259 258 255 102 102
3 247 248 259 255 102 102
3 248 260 259 255 102 102
3 248 249 260 255 102 102
3 249 261 260 255 102 102
3 249 250 261 255 102 102
3 250 262 261 255 102 102
3 250 251 262 255 102 102
3 251 263 262 255 102 102
3 251 240 263 255 102 102
3 240 252 263 255 102 102
3 264 265 276 255 102 102
3 265 277 276 255 102 102
3 265 266 277 255 102 102
3 266 278 277 255 102 102
3 266 267 278 255 102 102
3 267 279 278 255 102 102
3 267 268 279 255 102 102
3 268 280 279 255 102 102
3 268 269 280 255 102 102
3 269 281 280 255 102 102
3 269 270 281 255 102 102
3 270 282 281 255 102 102
3 270 271 282 255 102 102
3 271 283 282 255 102 102
3 271 272 283 255 102 102
3 272 284 283 255 102 102
3 272 273 284 255 102 102
3 273 285 284 255 102 102
3 273 274 285 255 102 102
3 274 286 285 255 102 102
3 274 275 286 255 102 102
3 275 287 286 255 102 102
3 275 264 287 255 102 102
3 264 276 287 255 102 102
3 288 289 300 255 102 102
3 289 301 300 255 102 102
3 289 290 301 255 102 102
3 290 302 301 255 102 102
3 290 291 302 255 102 102
3 291 303 302 255 102 102
3 291 292 303 255 102 102
3 292 304 303 255 102 102
3 292 293 304 255 102 102
3 293 305 304 255 102 102
3 293 294 305 255 102 102
3 294 306 305 255 102 102
3 294 295 306 255 102 102
3 295 307 306 255 102 102
3 295 296 307 255 102 102
3 296 308 307 255 102 102
3 296 297 308 255 102 102
3 297 309 308 255 102 102
3 297 298 309 255 102 102
3 298 310 309 255 102 102
3 298 299 310 255 102 102
3 299 311 310 255 102 102
3 299 288 311 255 102 102
3 288 300 311 255 102 102
3 312 313 324 255 102 102
3 313 325 324 255 102 102
3 313 314 325 255 102 102
3 314 326 325 255 102 102
3 314 315 326 255 102 102
3 315 327 326 255 102 102
3 315 316 327 255 102 102
3 316 328 327 255 102 102
3 316 317 328 255 102 102
3 317 329 328 255 102 102
3 317 318 329 255 102 102
3 318 330 329 255 102 102
3 318 319 330 255 102 102
3 319 331 330 255 102 102
3 319 320 331 255 102 102
3 320 332 331 255 102 102
3 320 321 332 255 102 102
3 321 333 332 255 102 102
3 321 322 333 255 102 102
3 322 334 333 255 102 102
3 322 323 334 255 102 102
3 323 335 334 255 102 102
3 323 312 335 255 102 102
3 312 324 335 255 102 102
3 336 337 348 255 102 102
3 337 349 348 255 102 102
3 337 338 349 255 102 102
3 338 350 349 255 102 102
3 338 339 350 255 102 102
3 339 351 350 255 102 102
3 339 340 351 255 102 102
3 340 352 351 255 102 102
3 340 341 352 255 102 102
3 341 353 352 255 102 102
3 341 342 353 255 102 102
3 342 354 353 255 102 102
3 342 343 354 255 102 102
3 343 355 354 255 102 102
3 343 344 355 255 102 102
3 344 356 355 255 102 102
3 344 345 356 255 102 102
3 345 357 356 255 102 102
3 345 346 357 255 102 102
3 346 358 357 255 102 102
3 346 347 358 255 102 102
3 347 359 358 255 102 102
3 347 336 359 255 102 102
3 336 348 359 255 102 102
3 360 361 366 255 255 102
3 360 366 371 255 255 102
3 360 371 376 255 255 102
3 360 376 381 255 255 102
3 360 381 386 255 255 102
3 360 386 391 255 255 102
3 360 391 396 255 255 102
3 360 396 401 255 255 102
3 360 401 406 255 255 102
3 360 406 411 255 255 102
3 360 411 416 255 255 102
3 360 416 361 255 255 102
3 361 362 367 255 255 102
3 361 367 366 255 255 102
3 366 367 372 255 255 102
3 366 372 371 255 255 102
3 371 372 377 255 255 102
3 371 377 376 255 255 102
3 376 377 382 255 255 102
3 376 382 381 255 255 102
3 381 382 387 255 255 102
3 381 387 386 255 255 102
3 386 387 392 255 255 102
3 386 392 391 255 255 102
3 391 392 397 255 255 102
3 391 397 396 255 255 102
3 396 397 402 255 255 102
3 396 402 401 255 255 102
3 401 402 407 255 255 102
3 401 407 406 255 255 102
3 406 407 412 255 255 102
3 406 412 411 255 255 102
3 411 412 417 255 255 102
3 411 417 416 255 255 102
3 416 417 362 255 255 102
3 416 362 361 255 255 102
3 362 363 368 255 255 102
3 362 368 367 255 255 102
3 367 368 373 255 255 102
3 367 373 372 255 255 102
3 372 373 378 255 255 102
3 372 378 377 255 255 102
3 377 378 383 255 255 102
3 377 383 382 255 255 102
3 382 383 388 255 255 102
3 382 388 387 255 255 102
3 387 388 393 255 255 102
3 387 393 392 255 255 102
3 392 393 398 255 255 102
3 392 398 397 255 255 102
3 397 398 403 255 255 102
3 397 403 402 255 255 102
3 402 403 408 255 255 102
3 402 408 407 255 255 102
3 407 408 413 255 255 102
3 407 413 412 255 255 102
3 412 413 418 255 255 102
3 412 418 417 255 255 102
3 417 418 363 255 255 102
3 417 363 362 255 255 102
3 363 364 369 255 255 102
3 363 369 368 255 255 102
3 368 369 374 255 255 102
3 368 374 373 255 255 102
3 373 374 379 255 255 102
3 373 379 378 255 255 102
3 378 379 384 255 255 102
3 378 384 383 255 255 102
3 383 384 389 255 255 102
3 383 389 388 255 255 102
3 388 389 394 255 255 102
3 388 394 393 255 255 102
3 393 394 399 255 255 102
3 393 399 398 255 255 102
3 398 399 404 255 255 102
3 398 404 403 255 255 102
3 403 404 409 255 255 102
3 403 409 408 255 255 102
3 408 409 414 255 255 102
3 408 414 413 255 255 102
3 413 414 419 255 255 102
3 413 419 418 255 255 102
3 418 419 364 255 255 102
3 418 364 363 255 255 102
3 364 365 370 255 255 102
3 364 370 369 255 255 102
3 369 370 375 255 255 102
3 369 375 374 255 255 102
3 374 375 380 255 255 102
3 374 380 379 255 255 102
3 379 380 385 255 255 102
3 379 385 384 255 255 102
3 384 385 390 255 255 102
3 384 390 389 255 255 102
3 389 390 395 255 255 102
3 389 395 394 255 255 102
3 394 395 400 255 255 102
3 394 400 399 255 255 102
3 399 400 405 255 255 102
3 399 405 404 255 255 102
3 404 405 410 255 255 102
3 404 410 409 255 255 102
3 409 410 415 255 255 102
3 409 415 414 255 255 102
3 414 415 420 255 255 102
3 414 420 419 255 255 102
3 419 420 365 255 255 102
3 419 365 364 255 255 102
3 365 421 370 255 255 102
3 370 421 375 255 255 102
3 375 421 380 255 255 102
3 380 421 385 255 255 102
3 385 421 390 255 255 102
3 390 421 395 255 255 102
3 395 421 400 255 255 102
3 400 421 405 255 255 102
3 405 421 410 255 255 102
3 410 421 415 255 255 102
3 415 421 420 255 255 102
3 420 421 365 255 255 102
3 422 423 428 255 255 102
3 422 428 433 255 255 102
3 422 433 438 255 255 102
3 422 438 443 255 255 102
3 422 443 448 255 255 102
3 422 448 453 255 255 102
3 422 453 458 255 255 102
3 422 458 463 255 255 102
3 422 463 468 255 255 102
3 422 468 473 255 255 102
3 422 473 478 255 255 102
3 422 478 423 255 255 102
3 423 424 429 255 255 102
3 423 429 428 255 255 102
3 428 429 434 255 255 102
3 428 434 433 255 255 102
3 433 434 439 255 255 102
3 433 439 438 255 255 102
3 438 439 444 255 255 102
3 438 444 443 255 255 102
3 443 444 449 255 255 102
3 443 449 448 255 255 102
3 448 449 454 255 255 102
3 448 454 453 255 255 102
3 453 454 459 255 255 102
3 453 459 458 255 255 102
3 458 459 464 255 255 102
3 458 464 463 255 255 102
3 463 464 469 255 255 102
3 463 469 468 255 255 102
3 468 469 474 255 255 102
3 468 474 473 255 255 102
3 473 474 479 255 255 102
3 473 479 478 255 255 102
3 478 479 424 255 255 102
3 478 424 423 255 255 102
3 424 425 430 255 255 102
3 424 430 429 255 255 102
3 429 430 435 255 255 102
3 429 435 434 255 255 102
3 434 435 440 255 255 102
3 434 440 439 255 255 102
3 439 440 445 255 255 102
3 439 445 444 255 255 102
3 444 445 450 255 255 102
3 444 450 449 255 255 102
3 449 450 455 255 255 102
3 449 455 454 255 255 102
3 454 455 460 255 255 102
3 454 460 459 255 255 102
3 459 460 465 255 255 102
3 459 465 464 255 255 102
3 464 465 470 255 255 102
3 464 470 469 255 255 102
3 469 470 475 255 255 102
3 469 475 474 255 255 102
3 474 475 480 255 255 102
3 474 480 479 255 255 102
3 479 480 425 255 255 102
3 479 425 424 255 255 102
3 425 426 431 255 255 102
3 425 431 430 255 255 102
3 430 431 436 255 255 102
3 430 436 435 255 255 102
3 435 436 441 255 255 102
3 435 441 440 255 255 102
3 440 441 446 255 255 102
3 440 446 445 255 255 102
3 445 446 451 255 255 102
3 445 451 450 255 255 102
3 450 451 456 255 255 102
3 450 456 455 255 255 102
3 455 456 461 255 255 102
3 455 461 460 255 255 102
3 460 461 466 255 255 102
3 460 466 465 255 255 102
3 465 466 471 255 255 102
3 465 471 470 255 255 102
3 470 471 476 255 255 102
3 470 476 475 255 255 102
3 475 476 481 255 255 102
3 475 481 480 255 255 102
3 480 481 426 255 255 102
3 480 426 425 255 255 102
3 426 427 432 255 255 102
3 426 432 431 255 255 102
3 431 432 437 255 255 102
3 431 437 436 255 255 102
3 436 437 442 255 255 102
3 436 442 441 255 255 102
3 441 442 447 255 255 102
3 441 447 446 255 255 102
3 446 447 452 255 255 102
3 446 452 451 255 255 102
3 451 452 457 255 255 102
3 451 457 456 255 255 102
3 456 457 462 255 255 102
3 456 462 461 255 255 102
3 461 462 467 255 255 102
3 461 467 466 255 255 102
3 466 467 472 255 255 102
3 466 472 471 255 255 102
3 471 472 477 255 255 102
3 471 477 476 255 255 102
3 476 477 482 255 255 102
3 476 482 481 255 255 102
3 481 482 427 255 255 102
3 481 427 426 255 255 102
3 427 483 432 255 255 102
3 432 483 437 255 255 102
3 437 483 442 255 255 102
3 442 483 447 255 255 102
3 447 483 452 255 255 102
3 452 483 457 255 255 102
3 457 483 462 255 255 102
3 462 483 467 255 255 102
3 467 483 472 255 255 102
3 472 483 477 255 255 102
3 477 483 482 255 255 102
3 482 483 427 255 255 102

